<?xml version="1.0" encoding="utf-8"?>
<svg id="master-artboard" viewBox="0 0 681.2481689453125 287.992431640625" data-name="Layer 1" xmlns="http://www.w3.org/2000/svg" width="681.2481689453125px" height="287.992431640625px"><rect id="ee-background" x="0" y="0" width="681.2481689453125" height="287.992431640625" style="fill: white; fill-opacity: 0; pointer-events: none;"/><title>Free Hogwarts Vector</title><path class="cls-16" d="M502,267.68c-9.3,1.93-18.92-.34-27.79,2.91,10.9,1.21,21.55,3.66,32.62,4,27,0.73,52.49-6.73,72.78-23-7.89,4.7-16.88,8.29-24.45,11.11-13.37,5-31.23,8.12-45.37,5a0.24,0.24,0,0,1,.06-0.46c7.83,0.49,17-.61,25.73-2.48a28.19,28.19,0,0,1-14.39-2.54A51,51,0,0,0,511,260.7c-7,0-14,1.77-20.87,3.29q-2.68.6-5.36,1.27A106.79,106.79,0,0,1,502,267.11,0.3,0.3,0,0,1,502,267.68Z" style="fill: rgb(244, 125, 39);" transform="matrix(1, 0, 0, 1, -402.8353271484375, -150.43643188476562)"/><path class="cls-16" d="M568,247.4c10.54-5.56,22.56-17.13,35.24-15.15,5.73,0.89,10.41,4.38,14.87,7.86,7.85,6.13,15.32,12,24.12,16.79l0.35,0.19,0.15,0.08a128.56,128.56,0,0,0,12.64,6,2.52,2.52,0,0,1,.52.2c2.27,0.9,4.57,1.71,6.89,2.41,0.76-1.12,1.55-2.22,2.38-3.3-2.73-1.82-5.28-3.82-7.59-5.62-11.52-8.95-22.73-18.29-34.19-27.33-10.24-8.08-20-11.84-32.64-6.06-9.73,4.46-18,11.69-26.65,17.86-13.24,9.45-26,13.53-41.24,15C535.53,264.19,556.89,253.26,568,247.4Z" style="fill: rgb(244, 125, 39);" transform="matrix(1, 0, 0, 1, -402.8353271484375, -150.43643188476562)"/><path class="cls-16" d="M651.2,276c-0.22,6.69-2,13.58-3.59,19.74a88.34,88.34,0,0,1-5.53,16.18c0.59,2.88,1.13,5.73,1.85,8.55,2.32-4.09,4.74-8.5,6.88-13.1a70.53,70.53,0,0,1,.66-12.45,0.9,0.9,0,0,1-1.1-.85C650.74,289,652.3,281.78,651.2,276Z" style="fill: rgb(244, 125, 39);" transform="matrix(1, 0, 0, 1, -402.8353271484375, -150.43643188476562)"/><path class="cls-16" d="M888.67,307.78a85.76,85.76,0,0,1-24.86-12.84c-9.51-7.15-19.06-15.29-26.22-24.85-4.32-5.76-6.55-12-9.11-18.21a58.63,58.63,0,0,0,.92,7.39c2.77,10.4,9.65,17.6,14.76,26.76,0.14,0.24-.21.54-0.4,0.31-5.82-7.14-12.87-13.41-16.73-21.94a61,61,0,0,1-2.79-7.8c2.66,15.86,11,29.48,23.3,40.69A91.88,91.88,0,0,0,871.8,313a68.07,68.07,0,0,0,17.68,4.83c-3.24-2.1-6.29-4.56-9.13-6.76-0.44-.34.12-0.89,0.55-0.71,5.39,2.39,10.59,4.88,16.13,6.74a122.37,122.37,0,0,0-8.26-9.23A0.56,0.56,0,0,1,888.67,307.78Z" style="fill: rgb(244, 125, 39);" transform="matrix(1, 0, 0, 1, -402.8353271484375, -150.43643188476562)"/><path class="cls-16" d="M900.68,302.35c6,0.51,12.17,2.9,17.77,5.77a21.26,21.26,0,0,0-4.83-5.24,1.28,1.28,0,0,1-.3-0.32,88.4,88.4,0,0,1-8.69-2.15C893.69,297,882.87,293,872.89,287.3c-17.22-9.76-36-25.53-41.6-45.28q-0.87.55-1.73,1.14c4.38,9.32,6.76,18.73,13.63,27,5.93,7.18,13.3,13.51,20.59,19.26,9.07,7.15,19,13.12,30.1,16.54,6.6,2,13.47,3,20.32,4a59.8,59.8,0,0,0-13.64-6.66C900,303.18,900.09,302.3,900.68,302.35Z" style="fill: rgb(244, 125, 39);" transform="matrix(1, 0, 0, 1, -402.8353271484375, -150.43643188476562)"/><path class="cls-16" d="M645.11,266.89c0.72,10.14-1.39,21.3-4.76,30.26a50.28,50.28,0,0,1-8,13.36,1.13,1.13,0,0,1,.23,1,32.74,32.74,0,0,0-1.24,9C641.77,308.24,650,282,645.11,266.89Z" style="fill: rgb(244, 125, 39);" transform="matrix(1, 0, 0, 1, -402.8353271484375, -150.43643188476562)"/><path class="cls-16" d="M909.39,277a102.88,102.88,0,0,1-52.43-24,94.15,94.15,0,0,0,15.08,13,149.84,149.84,0,0,0,31.8,16c15.68,5.82,31.85,5,48,6-6.49-1.86-13-3-20-4.42a0.45,0.45,0,0,1,0-.87c7.92-1.4,17.16-.18,25.21,2.56A42.28,42.28,0,0,0,943.66,278,157,157,0,0,1,909.39,277Z" style="fill: rgb(244, 125, 39);" transform="matrix(1, 0, 0, 1, -402.8353271484375, -150.43643188476562)"/><path class="cls-16" d="M933.71,292.56c-4-.19-7.91-0.49-11.87-1-11.08-1.54-21.58-5.49-31.65-10.25-18-8.53-40.78-22.17-48.1-42.11,2.47,18.92,19.15,26.75,32.15,38,0.34,0.3-.1.75-0.45,0.58-15.46-7.31-33-21-36.87-38.42q-0.78.25-1.55,0.57c5.58,21.38,27.85,38.13,46.79,47.31a143.33,143.33,0,0,0,33.22,11.58c7.14,1.45,14.3,1.92,21.36,3.09a34.19,34.19,0,0,0-5.08-2.5,62.78,62.78,0,0,0-15.12-3.28c-0.32,0-.46-0.56-0.08-0.61a42.64,42.64,0,0,1,23.29,3.85A25,25,0,0,0,933.71,292.56Z" style="fill: rgb(244, 125, 39);" transform="matrix(1, 0, 0, 1, -402.8353271484375, -150.43643188476562)"/><path class="cls-16" d="M809.42,310.48a51.55,51.55,0,0,1-8-13.33,74,74,0,0,1-4.76-30.28C791.77,282,800,308.24,810.4,320.51a32.74,32.74,0,0,0-1.24-9A1.13,1.13,0,0,1,809.42,310.48Z" style="fill: rgb(244, 125, 39);" transform="matrix(1, 0, 0, 1, -402.8353271484375, -150.43643188476562)"/><path class="cls-16" d="M790.58,276c-1.09,5.76.46,12.94,0.83,18.07a0.9,0.9,0,0,1-1.1.85,70.53,70.53,0,0,1,.66,12.47c2.14,4.58,4.57,9,6.88,13.08,0.72-2.82,1.25-5.67,1.85-8.55a88.34,88.34,0,0,1-5.53-16.18C792.63,289.59,790.81,282.71,790.58,276Z" style="fill: rgb(244, 125, 39);" transform="matrix(1, 0, 0, 1, -402.8353271484375, -150.43643188476562)"/><path class="cls-16" d="M906,264.65c8.79,1.9,18.15,3,26,2.51a0.24,0.24,0,0,1,.06.46c-14.17,3.12-32,0-45.37-5-7.53-2.79-16.6-6.44-24.56-11.19,20.31,16.37,45.83,23.86,72.88,23.13,11-.3,21.69-2.79,32.55-4-8.85-3.22-18.43-1-27.72-2.88a0.3,0.3,0,0,1,0-.57A106.78,106.78,0,0,1,957,265.26q-2.67-.67-5.36-1.27c-8.23-1.83-16.52-3.74-25-2.9a59.17,59.17,0,0,0-6,1A28.27,28.27,0,0,1,906,264.65Z" style="fill: rgb(244, 125, 39);" transform="matrix(1, 0, 0, 1, -402.8353271484375, -150.43643188476562)"/><path class="cls-16" d="M816.07,256.86a20.71,20.71,0,0,0,.29,5,41.21,41.21,0,0,1-.24-4.36C816.09,257.27,816.08,257.06,816.07,256.86Z" style="fill: rgb(244, 125, 39);" transform="matrix(1, 0, 0, 1, -402.8353271484375, -150.43643188476562)"/><path class="cls-16" d="M834.93,310.44c1.39,1.83,2.82,3.68,4.17,5.58-0.34-1.48-.7-3-1.06-4.52a1.09,1.09,0,0,1,0-.52c-0.38-.38-0.78-0.75-1.15-1.14a87.46,87.46,0,0,1-16-23,173.8,173.8,0,0,1-7.67-17c0,1.17,0,2.34.17,3.5,0.57,5.39,4.15,9.58,5.09,14.81a0.41,0.41,0,0,1-.75.32c-2.86-4.23-6.2-8.82-7.79-13.72a32,32,0,0,1-1-3.85c1.37,10.45,6.31,20.47,11.77,29.5,4.46,7.38,10.3,12.14,16.08,17.31-1.08-2.17-2.08-4.39-3.07-6.56A0.69,0.69,0,0,1,834.93,310.44Z" style="fill: rgb(244, 125, 39);" transform="matrix(1, 0, 0, 1, -402.8353271484375, -150.43643188476562)"/><path class="cls-16" d="M812.9,294.87a88.82,88.82,0,0,1-7.24-18,48.88,48.88,0,0,0,4.39,17,0.37,0.37,0,0,1-.58.45c-3.29-3.21-5.82-8.18-7.37-13.58,1,7.94,3.43,15.78,7,21.9,3.82,6.5,9.09,12.1,13.78,18.07-0.08-3.46-.31-6.9-0.43-10.37A98.37,98.37,0,0,1,812.9,294.87Z" style="fill: rgb(244, 125, 39);" transform="matrix(1, 0, 0, 1, -402.8353271484375, -150.43643188476562)"/><path class="cls-16" d="M841.36,297.86a77.7,77.7,0,0,1-18.25-28,27.47,27.47,0,0,0,2.57,9.94,0.12,0.12,0,0,1-.16.16,11.12,11.12,0,0,1-4.78-4.3c2.11,5,4.42,9.57,5.8,12.3a83.3,83.3,0,0,0,18.77,24.33c4.46,4,9.4,6.18,14.29,8.45-0.64-.87-1.28-1.74-2-2.56-0.87-1-2-1.84-2.81-2.87a0.59,0.59,0,0,1,.57-1c2.3,0.48,4.29,2.78,5.84,4.41l1.64,1.72c-1.32-3-2.67-5.89-3.86-8.9A91.1,91.1,0,0,1,841.36,297.86Z" style="fill: rgb(244, 125, 39);" transform="matrix(1, 0, 0, 1, -402.8353271484375, -150.43643188476562)"/><path class="cls-16" d="M632.82,270.89a31.92,31.92,0,0,1-1,3.85c-1.58,4.9-4.92,9.49-7.79,13.72a0.41,0.41,0,0,1-.75-0.32c0.93-5.23,4.52-9.42,5.09-14.81,0.12-1.15.16-2.3,0.17-3.46a171.13,171.13,0,0,1-7.67,17A88.42,88.42,0,0,1,603.73,311a1.08,1.08,0,0,1,0,.52c-0.37,1.55-.72,3-1.06,4.52,1.36-1.9,2.78-3.75,4.17-5.58a0.69,0.69,0,0,1,1.18.69c-1,2.17-2,4.39-3.07,6.56,5.78-5.17,11.62-9.93,16.08-17.31C626.5,291.36,631.44,281.34,632.82,270.89Z" style="fill: rgb(244, 125, 39);" transform="matrix(1, 0, 0, 1, -402.8353271484375, -150.43643188476562)"/><path class="cls-16" d="M621,275.73a11.11,11.11,0,0,1-4.78,4.28,0.12,0.12,0,0,1-.16-0.16,27.48,27.48,0,0,0,2.57-10,77.71,77.71,0,0,1-18.25,28,91.37,91.37,0,0,1-17.63,13.77c-1.19,3-2.54,5.95-3.86,8.9l1.64-1.72c1.56-1.63,3.53-3.92,5.84-4.41a0.59,0.59,0,0,1,.57,1c-0.92,1.11-2.09,2-3,3.11s-1.75,2.28-2.6,3.44l-0.39.51a32.85,32.85,0,0,0,3.89-1.57c4.84-2.37,9.11-6.16,13-9.82a83.17,83.17,0,0,0,17.36-23C616.62,285.32,618.93,280.77,621,275.73Z" style="fill: rgb(244, 125, 39);" transform="matrix(1, 0, 0, 1, -402.8353271484375, -150.43643188476562)"/><path class="cls-16" d="M639.7,280.78c-1.56,5.41-4.09,10.37-7.38,13.58a0.37,0.37,0,0,1-.58-0.45A48.89,48.89,0,0,0,636.13,277a87.94,87.94,0,0,1-7.24,17.9,99.2,99.2,0,0,1-9.56,15.51c-0.12,3.47-.35,6.91-0.43,10.36,4.69-6,10-11.56,13.78-18.07C636.27,296.56,638.65,288.73,639.7,280.78Z" style="fill: rgb(244, 125, 39);" transform="matrix(1, 0, 0, 1, -402.8353271484375, -150.43643188476562)"/><path class="cls-16" d="M785.9,263.33a2.51,2.51,0,0,1,.53-0.21,128.54,128.54,0,0,0,12.62-5.94l0.17-.09,0.34-.18c8.81-4.74,16.27-10.66,24.12-16.79,4.46-3.48,9.14-7,14.87-7.86,12.68-2,24.71,9.59,35.24,15.15,11.1,5.86,32.46,16.79,45.14,8.94-15.26-1.53-28-5.61-41.24-15-8.64-6.17-16.92-13.41-26.65-17.86-12.53-5.73-22.34-2.07-32.64,6.06-11.45,9-22.67,18.38-34.19,27.33-2.31,1.79-4.86,3.8-7.59,5.61,0.83,1.08,1.63,2.18,2.38,3.3C781.33,265,783.63,264.22,785.9,263.33Z" style="fill: rgb(244, 125, 39);" transform="matrix(1, 0, 0, 1, -402.8353271484375, -150.43643188476562)"/><path class="cls-16" d="M625.67,257.43a41.13,41.13,0,0,1-.23,4.34,20.6,20.6,0,0,0,.28-4.91C625.7,257,625.69,257.23,625.67,257.43Z" style="fill: rgb(244, 125, 39);" transform="matrix(1, 0, 0, 1, -402.8353271484375, -150.43643188476562)"/><path class="cls-16" d="M617.56,256.58a61.16,61.16,0,0,1-2.8,7.83c-3.86,8.53-10.91,14.8-16.73,21.94-0.19.23-.53-0.07-0.4-0.31,5.11-9.15,12-16.36,14.76-26.76a61.61,61.61,0,0,0,.93-7.56c-2.9,6.89-5.39,13.68-10.38,20-7,8.85-16,16.48-25,23.26a85.79,85.79,0,0,1-24.85,12.83,0.56,0.56,0,0,1-.09.13,122.35,122.35,0,0,0-8.26,9.23c5.54-1.86,10.73-4.34,16.13-6.74,0.42-.19,1,0.37.55,0.71-2.84,2.2-5.88,4.65-9.12,6.75A68.67,68.67,0,0,0,570,313a91.42,91.42,0,0,0,24.26-15.74C606.55,286,614.92,272.47,617.56,256.58Z" style="fill: rgb(244, 125, 39);" transform="matrix(1, 0, 0, 1, -402.8353271484375, -150.43643188476562)"/><path class="cls-16" d="M578,289.46c7.32-5.77,14.61-12.07,20.59-19.26,6.87-8.25,9.23-17.64,13.57-26.91q-0.85-.59-1.72-1.12c-5.65,19.67-24.39,35.39-41.56,45.13A157.82,157.82,0,0,1,535.28,301c-2.28.67-4.59,1.21-6.92,1.68a1.23,1.23,0,0,1-.2.21,21.22,21.22,0,0,0-4.85,5.25c5.6-2.87,11.82-5.27,17.79-5.78,0.6-.05.66,0.83,0.14,1a59.67,59.67,0,0,0-13.6,6.64c6.83-1,13.67-2,20.28-4C559,302.65,569,296.59,578,289.46Z" style="fill: rgb(244, 125, 39);" transform="matrix(1, 0, 0, 1, -402.8353271484375, -150.43643188476562)"/><path class="cls-16" d="M686,264.12a22,22,0,0,1,2.59-1.71c1-.59,2.05-1.27,3.24-1.94l4-2c1.43-.67,3-1.18,4.68-1.83s3.47-1,5.3-1.57c1.89-.37,3.84-0.78,5.88-1a57.09,57.09,0,0,1,6.33-.43,55.54,55.54,0,0,1,13.48,1.49,56.86,56.86,0,0,1,13.39,5.21l3.15,1.9a32.57,32.57,0,0,1,3,2.15,24.45,24.45,0,0,1,2.88,2.34l1.37,1.26,0.69,0.63,0.34,0.31,0.17,0.16,0.09,0.08,0,0h0a57.72,57.72,0,0,1,5,5.75,32,32,0,0,1,2.09,2.93l1.9,3.15a57.38,57.38,0,0,1,5.21,13.39,56.15,56.15,0,0,1,1.06,19.81c-0.26,2-.66,4-1,5.88-0.55,1.83-1,3.64-1.57,5.3s-1.16,3.25-1.83,4.68-1.37,2.74-2,4-1.37,2.27-2,3.26a22.41,22.41,0,0,1-1.7,2.58l-1.36,1.85-1.13,1.57,1.44-1.27,1.73-1.56c0.34-.31.72-0.63,1.09-1l1.11-1.26c0.77-.89,1.66-1.87,2.58-3s1.71-2.45,2.66-3.83,1.7-3,2.64-4.64,1.52-3.55,2.35-5.46c0.64-2,1.32-4,1.85-6.23a56.77,56.77,0,0,0,.45-22l-0.86-3.91c-0.3-1.31-.8-2.58-1.2-3.89l-0.64-2-0.82-1.9c-0.59-1.25-1.11-2.55-1.78-3.78A63.61,63.61,0,0,0,762,264.12l-0.18-.18,0,0-0.1-.09-0.2-.18-0.4-.36-0.8-.71-1.59-1.42a30,30,0,0,0-3.34-2.63,39,39,0,0,0-3.49-2.4L748.24,254c-1.23-.66-2.52-1.19-3.78-1.77l-1.9-.82-2-.64c-1.31-.4-2.58-0.89-3.89-1.2l-3.91-.86a52.62,52.62,0,0,0-15.14-.62,51.16,51.16,0,0,0-6.9,1.07c-2.19.53-4.26,1.21-6.23,1.85-1.91.83-3.8,1.46-5.46,2.35s-3.24,1.71-4.64,2.63-2.67,1.82-3.83,2.66-2.1,1.82-3,2.6l-1.26,1.11c-0.37.37-.68,0.74-1,1.08l-1.55,1.71-1.28,1.44,1.56-1.13Z" style="fill: rgb(244, 125, 39);" transform="matrix(1, 0, 0, 1, -402.8353271484375, -150.43643188476562)"/><path class="cls-16" d="M569.75,266.1a94.14,94.14,0,0,0,15.07-13,102.81,102.81,0,0,1-52.42,24,157.21,157.21,0,0,1-34.28,1,42.29,42.29,0,0,0-13.4,7.35c8.05-2.74,17.29-4,25.21-2.56a0.45,0.45,0,0,1,0,.87c-7,1.42-13.48,2.55-20,4.42,16.14-1,32.31-.17,48-6A149.84,149.84,0,0,0,569.75,266.1Z" style="fill: rgb(244, 125, 39);" transform="matrix(1, 0, 0, 1, -402.8353271484375, -150.43643188476562)"/><path class="cls-16" d="M559.63,287.19c18.89-9.15,41.08-25.83,46.74-47.13-0.51-.21-1-0.39-1.55-0.56-3.92,17.37-21.42,30.94-36.83,38.23-0.36.17-.79-0.29-0.45-0.58,13-11.23,29.68-19.08,32.15-38-7.32,19.93-30.07,33.59-48.1,42.11C541.54,286,531,290,519.94,291.52c-4,.53-7.89.82-11.83,1a24.88,24.88,0,0,0-6.09,6.8,42.64,42.64,0,0,1,23.31-3.86c0.38,0.05.23,0.58-.08,0.61a63.53,63.53,0,0,0-15.12,3.28,33.58,33.58,0,0,0-5.1,2.5c7.07-1.17,14.24-1.64,21.39-3.09A143.33,143.33,0,0,0,559.63,287.19Z" style="fill: rgb(244, 125, 39);" transform="matrix(1, 0, 0, 1, -402.8353271484375, -150.43643188476562)"/><path class="cls-17" d="M992.59,275.88a13.86,13.86,0,0,0-4.61-3.74c-9.68-7-21.39-10.59-33-13.22-6.48-1.47-13.15-3-19.8-3.29a32,32,0,0,0-7,.47c0.2-.24.4-0.48,0.59-0.73,1.52-2-.59-4.52-2.65-4.62-12.82-.65-24.63-1.93-36-8.53-7.91-4.61-14.91-10.63-22.39-15.87-11.47-8-24.91-16-39.16-10.46-11.73,4.52-22.89,15.57-32.52,23.5-6.52,5.37-14,13.9-22.26,19.61-1.07-1.22-2.16-2.43-3.33-3.59a70.14,70.14,0,0,0-99.19,0c-1.16,1.16-2.25,2.36-3.31,3.58-8.28-5.72-15.8-14.26-22.27-19.59-9.71-8-20.69-18.94-32.52-23.5-14.26-5.5-27.67,2.42-39.16,10.46-7.47,5.23-14.46,11.31-22.39,15.87-11.39,6.55-23.09,7.88-36,8.53-2.06.1-4.17,2.63-2.65,4.62,0.17,0.23.35,0.44,0.53,0.65a30.35,30.35,0,0,0-4.76-.41c-7.33,0-14.84,1.68-22,3.31-11.63,2.65-23.3,6.2-33,13.18a13.9,13.9,0,0,0-4.67,3.78,2.83,2.83,0,0,0,4,4,55,55,0,0,1,5.88-4.32c8.05-2.69,20.55.5,27.16,1.31l3,0.35c-7.18,2.75-13.34,8.92-18.93,14-2,1.81.13,4.85,2.51,4.3,9.8-2.25,19.6-2.41,29.42-2.73-4.2,3.5-6.93,8.52-10.15,13.1-1.29,1.82.88,4.79,3,3.94,8.64-3.44,17.82-4.49,26.93-6-2.84,2.71-4.87,6.32-8.14,9-2,1.64.18,4.63,2.38,4.09,10.85-2.68,21.05-4.52,30.86-7.3-4.31,3-7.61,7-11,11.35a2.43,2.43,0,0,0,2.34,4c11.88-2.44,22.8-2.76,34-7.86,2.17-1,4.29-2.07,6.38-3.21-2.52,4.27-5,8.53-7.18,13-0.85,1.77,1,4.34,3,3,4.68-3.27,10.65-4.3,15.5-7.51a81.8,81.8,0,0,0,9.62-7.58,41,41,0,0,0-2.95,11.81c-0.18,1.78,2.46,2.84,3.6,1.49,4.69-5.54,11.19-9,16.12-14.36a84.76,84.76,0,0,0-1.13,12.32,1.82,1.82,0,0,0,3.36.91c3.05-4.19,6.61-8.09,10-12.08a33.73,33.73,0,0,0-1.06,10.2,2,2,0,0,0,3.38,1.4,36.59,36.59,0,0,0,9-10.65,59.65,59.65,0,0,0,1.15,10.75c0.41,1.9,3.12,2.1,4,.53,2-3.45,4.26-7.22,6.41-11.2a70.12,70.12,0,0,0,138.52,0c2.15,4,4.37,7.75,6.41,11.2,0.93,1.57,3.63,1.37,4-.53a59.76,59.76,0,0,0,1.15-10.75,36.59,36.59,0,0,0,9,10.66,2,2,0,0,0,3.38-1.4A33.87,33.87,0,0,0,813,314.87c3.43,4,7,7.92,10.06,12.15a1.82,1.82,0,0,0,3.36-.91,84.75,84.75,0,0,0-1.13-12.32c4.92,5.37,11.43,8.82,16.12,14.36,1.13,1.34,3.78.3,3.6-1.49a41,41,0,0,0-3-11.89,101.23,101.23,0,0,0,8.16,6.54c5.32,3.82,11.77,5,17,8.62,1.95,1.36,3.82-1.2,3-3-2.14-4.49-4.66-8.75-7.19-13,1.51,0.82,3,1.62,4.6,2.36,11.79,5.63,23.13,6.13,35.76,8.72a2.43,2.43,0,0,0,2.34-4c-3.43-4.32-6.72-8.38-11-11.34,9.79,2.78,20,4.61,30.84,7.29,2.2,0.54,4.36-2.44,2.38-4.09-3.31-2.74-5.35-6.42-8.25-9.14,9.16,1.5,18.38,2.64,27,6.09,2.13,0.85,4.32-2.1,3-3.94-3.23-4.58-5.93-9.58-10.11-13.07,9.8,0.31,19.58.45,29.38,2.7,2.37,0.54,4.51-2.49,2.51-4.3-5.61-5.07-11.76-11.24-18.93-14l3-.35c6.6-.8,19.18-4,27.23-1.26a54.93,54.93,0,0,1,5.82,4.28A2.83,2.83,0,0,0,992.59,275.88Zm-518.42-5.29c8.87-3.25,18.49-1,27.79-2.91a0.3,0.3,0,0,0,0-.57,106.79,106.79,0,0,0-17.22-1.85q2.67-.67,5.36-1.27c6.82-1.52,13.86-3.33,20.87-3.29a51,51,0,0,1,10.19,1.43,28.19,28.19,0,0,0,14.39,2.54c-8.7,1.87-17.9,3-25.73,2.48a0.24,0.24,0,0,0-.06.46c14.14,3.11,32,0,45.37-5,7.57-2.81,16.56-6.41,24.45-11.11-20.29,16.31-45.77,23.78-72.78,23C495.72,274.25,485.07,271.79,474.17,270.58ZM490,288.1c6.49-1.86,13-3,20-4.42a0.45,0.45,0,0,0,0-.87c-7.92-1.4-17.16-.18-25.21,2.56a42.29,42.29,0,0,1,13.4-7.35,157.21,157.21,0,0,0,34.28-1,102.81,102.81,0,0,0,52.42-24,94.14,94.14,0,0,1-15.07,13,149.84,149.84,0,0,1-31.8,16C522.26,287.93,506.09,287.1,490,288.1ZM505,301.86a33.58,33.58,0,0,1,5.1-2.5,63.53,63.53,0,0,1,15.12-3.28c0.31,0,.47-0.56.08-0.61A42.64,42.64,0,0,0,502,299.33a24.88,24.88,0,0,1,6.09-6.8c3.94-.19,7.88-0.48,11.83-1,11.08-1.5,21.6-5.49,31.65-10.25,18-8.53,40.78-22.18,48.1-42.11-2.47,18.91-19.15,26.76-32.15,38-0.34.29,0.09,0.75,0.45,0.58,15.41-7.29,32.91-20.86,36.83-38.23,0.52,0.17,1,.35,1.55.56-5.66,21.3-27.86,38-46.74,47.13a143.33,143.33,0,0,1-33.22,11.58C519.26,300.22,512.1,300.69,505,301.86ZM527.64,310a59.67,59.67,0,0,1,13.6-6.64c0.52-.16.46-1-0.14-1-6,.51-12.18,2.91-17.79,5.78a21.22,21.22,0,0,1,4.85-5.25,1.23,1.23,0,0,0,.2-0.21c2.32-.47,4.63-1,6.92-1.68A157.82,157.82,0,0,0,568.9,287.3c17.17-9.73,35.9-25.46,41.56-45.13q0.87,0.53,1.72,1.12c-4.34,9.27-6.7,18.67-13.57,26.91-6,7.18-13.27,13.49-20.59,19.26-9.05,7.13-19,13.19-30.1,16.54C541.31,308,534.47,309,527.64,310Zm97.8-48.23a41.13,41.13,0,0,0,.23-4.34c0-.19,0-0.38,0-0.58A20.6,20.6,0,0,1,625.44,261.76ZM570,313a68.67,68.67,0,0,1-17.66,4.82c3.23-2.1,6.28-4.55,9.12-6.75,0.44-.34-0.12-0.9-0.55-0.71-5.39,2.39-10.59,4.88-16.13,6.74A122.35,122.35,0,0,1,553,307.9a0.56,0.56,0,0,0,.09-0.13A85.79,85.79,0,0,0,578,294.94c9-6.77,17.94-14.4,25-23.26,5-6.29,7.48-13.07,10.38-20a61.61,61.61,0,0,1-.93,7.56c-2.74,10.4-9.65,17.61-14.76,26.76-0.14.24,0.21,0.54,0.4,0.31,5.82-7.14,12.87-13.41,16.73-21.94a61.16,61.16,0,0,0,2.8-7.83c-2.64,15.89-11,29.47-23.31,40.72A91.42,91.42,0,0,1,570,313Zm27.9-2c-3.91,3.66-8.18,7.45-13,9.82a32.85,32.85,0,0,1-3.89,1.57l0.39-.51c0.85-1.16,1.68-2.33,2.6-3.44s2.1-2,3-3.11a0.59,0.59,0,0,0-.57-1c-2.31.49-4.28,2.78-5.84,4.41l-1.64,1.72c1.32-2.95,2.67-5.89,3.86-8.9a91.37,91.37,0,0,0,17.63-13.77,77.71,77.71,0,0,0,18.25-28,27.48,27.48,0,0,1-2.57,10,0.12,0.12,0,0,0,.16.16,11.11,11.11,0,0,0,4.78-4.28c-2.11,5-4.43,9.59-5.79,12.29A83.17,83.17,0,0,1,597.89,311Zm7.08,6.65c1.08-2.17,2.08-4.39,3.07-6.56a0.69,0.69,0,0,0-1.18-.69c-1.39,1.83-2.82,3.68-4.17,5.58,0.34-1.48.7-3,1.06-4.52a1.08,1.08,0,0,0,0-.52,88.42,88.42,0,0,0,17.18-24.11,171.13,171.13,0,0,0,7.67-17c0,1.16,0,2.31-.17,3.46-0.57,5.39-4.15,9.58-5.09,14.81a0.41,0.41,0,0,0,.75.32c2.86-4.24,6.2-8.82,7.79-13.72a31.92,31.92,0,0,0,1-3.85c-1.37,10.45-6.31,20.47-11.77,29.5C616.59,307.76,610.75,312.52,605,317.69Zm13.93,3.06c0.08-3.46.31-6.9,0.43-10.36a99.2,99.2,0,0,0,9.56-15.51,87.94,87.94,0,0,0,7.24-17.9,48.89,48.89,0,0,1-4.39,16.94,0.37,0.37,0,0,0,.58.45c3.29-3.21,5.82-8.17,7.38-13.58-1.05,7.95-3.43,15.78-7,21.9C628.85,309.19,623.59,314.78,618.9,320.74Zm12.49-.23a32.74,32.74,0,0,1,1.24-9,1.13,1.13,0,0,0-.23-1,50.28,50.28,0,0,0,8-13.36c3.37-9,5.48-20.12,4.76-30.26C650,282,641.77,308.24,631.39,320.51Zm12.55,0c-0.72-2.82-1.25-5.66-1.85-8.55a88.34,88.34,0,0,0,5.53-16.18c1.54-6.17,3.36-13.05,3.59-19.74,1.1,5.76-.46,12.94-0.83,18.08a0.9,0.9,0,0,0,1.1.85,70.53,70.53,0,0,0-.66,12.45C648.67,312,646.25,316.4,643.93,320.49Zm18.84-54.75c-2.32-.7-4.62-1.52-6.89-2.41a2.52,2.52,0,0,0-.52-0.2,128.56,128.56,0,0,1-12.64-6l-0.15-.08-0.35-.19c-8.81-4.74-16.27-10.66-24.12-16.79-4.46-3.48-9.14-7-14.87-7.86-12.68-2-24.71,9.59-35.24,15.15-11.1,5.86-32.46,16.79-45.14,8.95,15.28-1.52,28-5.6,41.24-15,8.65-6.17,16.92-13.4,26.65-17.86,12.61-5.78,22.4-2,32.64,6.06,11.45,9,22.67,18.38,34.19,27.33,2.31,1.79,4.87,3.8,7.59,5.62C664.32,263.52,663.52,264.62,662.77,265.74Zm115,42.48a52,52,0,0,1-1.07,6.9c-0.53,2.19-1.21,4.26-1.85,6.23-0.83,1.91-1.47,3.8-2.35,5.46s-1.72,3.24-2.64,4.64-1.82,2.67-2.66,3.83-1.81,2.08-2.58,3l-1.11,1.26c-0.37.37-.75,0.69-1.09,1l-1.73,1.56-1.44,1.27,1.13-1.57,1.36-1.85a22.41,22.41,0,0,0,1.7-2.58c0.59-1,1.27-2.07,2-3.26s1.26-2.58,2-4,1.18-3,1.83-4.68,1-3.47,1.57-5.3c0.37-1.89.78-3.84,1-5.88a56.15,56.15,0,0,0-1.06-19.81A57.38,57.38,0,0,0,765.53,281l-1.9-3.15a32,32,0,0,0-2.09-2.93,57.72,57.72,0,0,0-5-5.75h0l0,0-0.09-.08-0.17-.16-0.34-.31-0.69-.63-1.37-1.26a24.45,24.45,0,0,0-2.88-2.34,32.57,32.57,0,0,0-3-2.15l-3.15-1.9a56.86,56.86,0,0,0-13.39-5.21A55.54,55.54,0,0,0,718,253.64a57.09,57.09,0,0,0-6.33.43c-2,.26-4,0.67-5.88,1-1.83.55-3.64,1-5.3,1.57s-3.25,1.16-4.68,1.83l-4,2c-1.19.68-2.25,1.35-3.24,1.94a22,22,0,0,0-2.59,1.71l-1.86,1.37-1.56,1.13,1.28-1.44,1.55-1.71c0.31-.33.62-0.71,1-1.08l1.26-1.11c0.9-.78,1.88-1.67,3-2.6s2.45-1.71,3.83-2.66,3-1.7,4.64-2.63,3.55-1.52,5.46-2.35c2-.64,4-1.31,6.23-1.85a51.16,51.16,0,0,1,6.9-1.07,52.62,52.62,0,0,1,15.14.62l3.91,0.86c1.31,0.3,2.58.8,3.89,1.2l2,0.64,1.9,0.82c1.26,0.58,2.55,1.1,3.78,1.77l3.64,2.11a39,39,0,0,1,3.49,2.4,30,30,0,0,1,3.34,2.63l1.59,1.42,0.8,0.71,0.4,0.36,0.2,0.18,0.1,0.09,0,0,0.18,0.18a63.61,63.61,0,0,1,9.85,13.51c0.67,1.23,1.19,2.53,1.78,3.78l0.82,1.9,0.64,2c0.4,1.31.89,2.58,1.2,3.89l0.86,3.91A52.49,52.49,0,0,1,777.78,308.22Zm-1.15-45.78c2.73-1.82,5.29-3.82,7.59-5.61,11.52-9,22.74-18.29,34.19-27.33,10.3-8.13,20.12-11.79,32.64-6.06,9.73,4.45,18,11.69,26.65,17.86,13.22,9.44,26,13.52,41.24,15-12.68,7.85-34-3.08-45.14-8.94-10.54-5.56-22.56-17.13-35.24-15.15-5.73.89-10.41,4.38-14.87,7.86-7.85,6.13-15.32,12-24.12,16.79l-0.34.18-0.17.09a128.54,128.54,0,0,1-12.62,5.94,2.51,2.51,0,0,0-.53.21c-2.27.9-4.57,1.71-6.88,2.41C778.26,264.62,777.46,263.52,776.64,262.44Zm39.43-5.58c0,0.2,0,.41.05,0.61a41.21,41.21,0,0,0,.24,4.36A20.71,20.71,0,0,1,816.07,256.86Zm-18.21,63.63c-2.32-4.09-4.74-8.5-6.88-13.08a70.53,70.53,0,0,0-.66-12.47,0.9,0.9,0,0,0,1.1-.85c-0.36-5.13-1.92-12.31-.83-18.07,0.22,6.69,2,13.57,3.59,19.74a88.34,88.34,0,0,0,5.53,16.18C799.11,314.83,798.57,317.67,797.85,320.49Zm-1.17-53.62a74,74,0,0,0,4.76,30.28,51.55,51.55,0,0,0,8,13.33,1.13,1.13,0,0,0-.25,1,32.74,32.74,0,0,1,1.24,9C800,308.24,791.77,282,796.69,266.87Zm12.43,35.8c-3.6-6.12-6-14-7-21.9,1.55,5.41,4.09,10.38,7.37,13.58a0.37,0.37,0,0,0,.58-0.45,48.88,48.88,0,0,1-4.39-17,88.82,88.82,0,0,0,7.24,18,98.37,98.37,0,0,0,9.56,15.5c0.12,3.47.35,6.91,0.43,10.37C818.2,314.78,812.93,309.18,809.11,302.68Zm11.63-2.29c-5.46-9-10.4-19-11.77-29.5a32,32,0,0,0,1,3.85c1.58,4.9,4.93,9.49,7.79,13.72a0.41,0.41,0,0,0,.75-0.32c-0.93-5.23-4.52-9.42-5.09-14.81-0.12-1.16-.16-2.33-0.17-3.5a173.8,173.8,0,0,0,7.67,17,87.46,87.46,0,0,0,16,23c0.38,0.39.77,0.76,1.15,1.14a1.09,1.09,0,0,0,0,.52c0.37,1.55.72,3,1.06,4.52-1.36-1.9-2.78-3.75-4.17-5.58a0.69,0.69,0,0,0-1.18.69c1,2.17,2,4.39,3.07,6.56C831,312.52,825.2,307.76,820.74,300.38Zm24.56,12A83.3,83.3,0,0,1,826.53,288c-1.38-2.73-3.69-7.29-5.8-12.3a11.12,11.12,0,0,0,4.78,4.3,0.12,0.12,0,0,0,.16-0.16,27.47,27.47,0,0,1-2.57-9.94,77.7,77.7,0,0,0,18.25,28A91.1,91.1,0,0,0,859,311.62c1.19,3,2.54,6,3.86,8.9l-1.64-1.72c-1.56-1.63-3.54-3.93-5.84-4.41a0.59,0.59,0,0,0-.57,1c0.85,1,1.94,1.85,2.81,2.87,0.7,0.82,1.35,1.69,2,2.56C854.7,318.53,849.76,316.33,845.3,312.35ZM897,317.13c-5.54-1.86-10.74-4.34-16.13-6.74-0.42-.19-1,0.37-0.55.71,2.84,2.2,5.89,4.66,9.13,6.76A68.07,68.07,0,0,1,871.8,313a91.88,91.88,0,0,1-24.26-15.74c-12.25-11.21-20.64-24.82-23.3-40.69a61,61,0,0,0,2.79,7.8c3.86,8.53,10.91,14.8,16.73,21.94,0.19,0.23.54-.06,0.4-0.31-5.11-9.16-12-16.36-14.76-26.76a58.63,58.63,0,0,1-.92-7.39c2.56,6.25,4.79,12.45,9.11,18.21,7.16,9.56,16.71,17.7,26.22,24.85a85.76,85.76,0,0,0,24.86,12.84,0.56,0.56,0,0,0,.08.12A122.37,122.37,0,0,1,897,317.13ZM893.87,306c-11.09-3.41-21-9.39-30.1-16.54-7.29-5.74-14.65-12.08-20.59-19.26-6.87-8.31-9.25-17.72-13.63-27q0.86-.6,1.73-1.14c5.6,19.75,24.38,35.51,41.6,45.28,10,5.66,20.81,9.74,31.74,13.11a88.4,88.4,0,0,0,8.69,2.15,1.28,1.28,0,0,0,.3.32,21.26,21.26,0,0,1,4.83,5.24c-5.6-2.87-11.81-5.27-17.77-5.77-0.59-.05-0.66.83-0.14,1A59.8,59.8,0,0,1,914.19,310C907.34,309,900.47,308,893.87,306Zm45.87-6.68a42.64,42.64,0,0,0-23.29-3.85c-0.38.05-.23,0.58,0.08,0.61a62.78,62.78,0,0,1,15.12,3.28,34.19,34.19,0,0,1,5.08,2.5c-7.07-1.17-14.22-1.63-21.36-3.09a143.33,143.33,0,0,1-33.22-11.58C863.22,278,841,261.26,835.37,239.88q0.77-.32,1.55-0.57c3.83,17.45,21.41,31.11,36.87,38.42,0.35,0.17.79-.29,0.45-0.58-13-11.24-29.68-19.07-32.15-38,7.32,19.94,30.06,33.58,48.1,42.11,10.07,4.76,20.57,8.7,31.65,10.25,4,0.55,7.92.85,11.87,1A25,25,0,0,1,939.74,299.32Zm17.32-13.95c-8.05-2.74-17.29-4-25.21-2.56a0.45,0.45,0,0,0,0,.87c7,1.42,13.48,2.55,20,4.42-16.14-1-32.31-.17-48-6a149.84,149.84,0,0,1-31.8-16,94.15,94.15,0,0,1-15.08-13,102.88,102.88,0,0,0,52.43,24,157,157,0,0,0,34.27,1A42.28,42.28,0,0,1,957.07,285.37ZM935,274.55c-27.06.74-52.58-6.76-72.88-23.13,8,4.75,17,8.4,24.56,11.19,13.42,5,31.2,8.13,45.37,5a0.24,0.24,0,0,0-.06-0.46c-7.85.49-17.2-.61-26-2.51a28.27,28.27,0,0,0,14.76-2.57,59.17,59.17,0,0,1,6-1c8.46-.85,16.75,1.07,25,2.9q2.68,0.6,5.36,1.27a106.78,106.78,0,0,0-17.22,1.85,0.3,0.3,0,0,0,0,.57c9.29,1.93,18.86-.34,27.72,2.88C956.68,271.76,946,274.25,935,274.55Z" style="fill: rgb(120, 63, 26);" transform="matrix(1, 0, 0, 1, -402.8353271484375, -152.1079478263855)"/></svg>